#!OML:ASF E:\acrobat2\Project_11_07_03\Capture day 1\Session 1\Acrobat.ASF
:FULLY-SPECIFIED
:DEGREES
341
root 13.2051 19.3219 8.41225 1.41518 -16.493 0.0282364
lowerback 12.1995 -1.46217 -0.0591379
upperback 2.8897 -1.99101 -0.705592
thorax -3.83091 -0.993151 -0.397731
lowerneck -0.533939 -2.0121 -2.53809
upperneck -16.7061 -2.01211 6.63818
head -4.8027 -1.2637 2.56657
rclavicle 3.93594e-014 -3.97569e-016
rhumerus 90.6913 -15.4671 -61.0843
rradius 53.6826
rwrist -63.3699
rhand -19.5027 -36.0202
rfingers 7.12502
rthumb 6.81992 -65.8904
lclavicle 3.93594e-014 -3.97569e-016
lhumerus 80.2139 0.6308 15.6281
lradius 30.7032
lwrist 7.82626
lhand -12.091 -17.6219
lfingers 7.12502
lthumb 13.9693 11.8887
rfemur -27.0426 -2.29993 13.2173
rtibia 48.9283
rfoot -5.78442 4.8815
rtoes 25.92
lfemur -30.0636 5.04767 -13.5235
ltibia 57.2352
lfoot -13.2371 1.44035
ltoes 12.3232
342
root 13.1842 19.663 8.61409 0.995763 -17.8906 -0.211136
lowerback 10.7224 -1.62763 0.133543
upperback 2.3909 -2.17668 -0.493546
thorax -3.53909 -1.08692 -0.291825
lowerneck -0.804663 -2.09668 -2.77855
upperneck -13.5138 -2.28042 6.40819
head -4.20683 -1.30339 2.74762
rclavicle -3.5334e-014 1.59028e-015
rhumerus 91.6492 -18.0871 -59.3149
rradius 54.4776
rwrist -65.1969
rhand -20.1156 -35.6131
rfingers 7.12502
rthumb 6.22817 -65.5016
lclavicle -3.5334e-014 1.59028e-015
lhumerus 78.3605 0.875119 9.6216
lradius 29.4609
lwrist 3.95316
lhand -11.3579 -16.3392
lfingers 7.12502
lthumb 14.6757 13.1214
rfemur -23.8277 -1.93863 13.4507
rtibia 44.3677
rfoot -2.07496 3.95962
rtoes 29.0482
lfemur -26.4685 5.83098 -13.3403
ltibia 53.3496
lfoot -11.798 2.9696
ltoes 11.6001
343
root 13.1541 20.0197 8.82332 0.639136 -19.3978 -0.382839
lowerback 8.95879 -1.83063 0.304035
upperback 1.86527 -2.42227 -0.273956
thorax -3.10878 -1.21055 -0.17575
lowerneck -1.18923 -2.08921 -2.83471
upperneck -10.2144 -2.39624 6.17449
head -2.9677 -1.30704 2.57461
rclavicle 3.26504e-014 -7.55382e-015
rhumerus 91.9263 -20.8391 -57.2768
rradius 55.3591
rwrist -66.7495
rhand -20.7085 -35.0779
rfingers 7.12502
rthumb 5.65578 -64.9824
lclavicle 3.26504e-014 -7.55382e-015
lhumerus 76.1372 0.403865 4.86619
lradius 28.349
lwrist 0.927956
lhand -10.8795 -15.0666
lfingers 7.12502
lthumb 15.1365 14.3599
rfemur -20.8132 -1.35435 13.5971
rtibia 39.9635
rfoot 1.81295 2.19498
rtoes 32.4945
lfemur -22.9557 6.57193 -13.1859
ltibia 49.4896
lfoot -10.244 4.74236
ltoes 11.3245
344
root 13.1155 20.3894 9.03893 0.265905 -20.9943 -0.50784
lowerback 7.01969 -2.06681 0.49915
upperback 1.34599 -2.71935 -0.0286148
thorax -2.567 -1.36018 -0.0613251
lowerneck -1.77213 -2.00416 -2.73674
upperneck -6.31997 -2.42828 5.76193
head -1.5749 -1.26298 2.32081
rclavicle -6.21823e-014 1.09332e-014
rhumerus 91.478 -23.766 -54.8678
rradius 56.2618
rwrist -67.8909
rhand -21.1909 -34.1279
rfingers 7.12502
rthumb 5.19007 -64.0444
lclavicle -6.21823e-014 1.09332e-014
lhumerus 73.697 -0.608592 1.5571
lradius 27.3075
lwrist -0.757815
lhand -10.2591 -13.7247
lfingers 7.12502
lthumb 15.7342 15.6557
rfemur -18.0444 -0.454789 13.6907
rtibia 35.9915
rfoot 5.49813 -0.763741
rtoes 35.8754
lfemur -19.5324 7.05809 -13.0287
ltibia 45.833
lfoot -8.73488 6.85165
ltoes 11.9309
345
root 13.0701 20.7706 9.25739 -0.1084 -22.6689 -0.589303
lowerback 4.9507 -2.32065 0.760625
upperback 0.875397 -3.04883 0.249719
thorax -1.89809 -1.52628 0.0291622
lowerneck -2.53976 -1.8609 -2.44949
upperneck -2.09454 -2.38821 5.1646
head -0.122669 -1.18467 2.00939
rclavicle 2.20325e-014 2.48481e-017
rhumerus 90.2774 -26.9709 -51.9582
rradius 57.1664
rwrist -68.5758
rhand -21.3724 -32.93
rfingers 7.12502
rthumb 5.01477 -62.8506
lclavicle 2.20325e-014 2.48481e-017
lhumerus 71.0595 -1.86977 -0.562473
lradius 26.3664
lwrist -0.864422
lhand -9.17905 -12.3527
lfingers 7.12502
lthumb 16.7741 16.9427
rfemur -15.7092 0.9512 13.7428
rtibia 32.7862
rfoot 8.17377 -5.23211
rtoes 38.9485
lfemur -16.3539 6.97366 -12.9021
ltibia 42.6178
lfoot -7.66184 9.46256
ltoes 13.8996
346
root 13.0205 21.1552 9.47105 -0.37847 -24.4384 -0.675098
lowerback 2.7775 -2.55896 1.14183
upperback 0.434197 -3.3713 0.575999
thorax -1.14065 -1.68853 0.0773339
lowerneck -3.32785 -1.71193 -2.1328
upperneck 2.04718 -2.32452 4.54824
head 1.29152 -1.10697 1.74192
rclavicle -3.85735e-014 -1.19271e-015
rhumerus 88.1554 -30.5291 -48.3446
rradius 58.0474
rwrist -68.8959
rhand -21.1361 -31.2419
rfingers 7.12502
rthumb 5.24297 -61.1571
lclavicle -3.85735e-014 -1.19271e-015
lhumerus 68.2133 -3.25354 -2.20905
lradius 25.6127
lwrist 0.631819
lhand -7.49659 -10.9128
lfingers 7.12502
lthumb 18.3932 18.2376
rfemur -13.9879 2.99226 13.8509
rtibia 30.6279
rfoot 8.3551 -11.2223
rtoes 42.7043
lfemur -13.6683 5.87731 -12.8598
ltibia 40.0944
lfoot -7.77942 12.7302
ltoes 17.6536
347
root 12.9694 21.5398 9.67049 -0.409981 -26.3136 -0.814818
lowerback 0.527495 -2.75779 1.65368
upperback -0.00179153 -3.66529 0.973816
thorax -0.336845 -1.835 0.103223
lowerneck -3.99831 -1.59916 -1.78422
upperneck 5.67429 -2.28542 3.98799
head 2.57527 -1.0593 1.51235
rclavicle -1.216e-015 3.18055e-015
rhumerus 85.0109 -34.3497 -43.9576
rradius 58.913
rwrist -68.8169
rhand -20.4933 -29.043
rfingers 7.12502
rthumb 5.8636 -58.9418
lclavicle -1.216e-015 3.18055e-015
lhumerus 65.1476 -4.8288 -4.27287
lradius 25.1274
lwrist 3.40833
lhand -5.32407 -9.21326
lfingers 7.12502
lthumb 20.482 19.7264
rfemur -12.9838 5.55404 14.1239
rtibia 29.5746
rfoot 4.45085 -17.4728
rtoes 46.4256
lfemur -11.6462 3.20443 -13.0328
ltibia 38.3934
lfoot -10.3067 16.3796
ltoes 24.1887
348
root 12.92 21.9287 9.84739 -0.17774 -28.3272 -1.04163
lowerback -1.67366 -2.90399 2.28033
upperback -0.425098 -3.92245 1.45799
thorax 0.450274 -1.96078 0.140864
lowerneck -4.34572 -1.53544 -1.43768
upperneck 8.41315 -2.29086 3.58207
head 3.56212 -1.04729 1.33075
rclavicle 3.92972e-014 -1.74931e-014
rhumerus 80.5943 -38.2865 -38.5344
rradius 59.4399
rwrist -67.9906
rhand -19.7428 -26.651
rfingers 7.12502
rthumb 6.58811 -56.5285
lclavicle 3.92972e-014 -1.74931e-014
lhumerus 61.9002 -6.90518 -7.6341
lradius 24.9299
lwrist 6.91181
lhand -3.16944 -7.17457
lfingers 7.12502
lthumb 22.5513 21.5284
rfemur -12.54 8.24087 14.5862
rtibia 29.3787
rfoot -3.61797 -21.6321
rtoes 50.1768
lfemur -10.1703 -1.44306 -13.5867
ltibia 37.4564
lfoot -16.4089 19.188
ltoes 32.7885
349
root 12.8752 22.3288 9.99528 0.310731 -30.494 -1.3505
lowerback -3.67827 -2.99378 2.96753
upperback -0.844488 -4.13868 2.04126
thorax 1.13235 -2.06482 0.247975
lowerneck -4.25674 -1.533 -1.12181
upperneck 10.1528 -2.36024 3.33875
head 4.15127 -1.07473 1.19883
rclavicle 7.524e-014 -6.36111e-015
rhumerus 74.7672 -42.1053 -32.0217
rradius 60.1017
rwrist -67.1123
rhand -18.3383 -22.4871
rfingers 7.12502
rthumb 7.94382 -52.3179
lclavicle 7.524e-014 -6.36111e-015
lhumerus 58.6334 -9.90264 -12.6484
lradius 24.9622
lwrist 10.6158
lhand -1.52961 -5.01893
lfingers 7.12502
lthumb 24.1245 23.4843
rfemur -12.4441 9.87063 15.1605
rtibia 29.614
rfoot -11.8228 -22.655
rtoes 52.9066
lfemur -9.02434 -7.38549 -14.5599
ltibia 37.0663
lfoot -24.9973 19.3848
ltoes 41.0287
350
root 12.8366 22.7488 10.1128 0.979611 -32.8319 -1.67972
lowerback -5.38697 -3.02745 3.65636
upperback -1.21795 -4.30716 2.69327
thorax 1.69918 -2.14495 0.437402
lowerneck -3.68591 -1.60432 -0.930316
upperneck 10.8829 -2.51139 3.34175
head 4.30078 -1.14704 1.16346
rclavicle 1.97791e-014 3.49861e-014
rhumerus 67.2773 -45.5622 -24.2469
rradius 60.9866
rwrist -66.1606
rhand -17.224 -17.8896
rfingers 7.12502
rthumb 9.01923 -47.6768
lclavicle 1.97791e-014 3.49861e-014
lhumerus 55.5317 -13.8914 -18.6166
lradius 25.0181
lwrist 13.6386
lhand -0.647315 -3.23784
lfingers 7.12502
lthumb 24.9702 25.1505
rfemur -12.5229 9.40281 15.6968
rtibia 29.9631
rfoot -15.8433 -23.0913
rtoes 53.8382
lfemur -8.15413 -11.599 -15.527
ltibia 36.9627
lfoot -30.8383 17.8661
ltoes 45.7251
351
root 12.8066 23.1854 10.1996 1.67599 -35.3479 -1.93457
lowerback -6.67598 -3.02455 4.28559
upperback -1.48642 -4.43595 3.36582
thorax 2.14477 -2.20614 0.703729
lowerneck -2.92302 -1.71066 -0.729618
upperneck 10.94 -2.69293 3.43805
head 4.17249 -1.23571 1.15496
rclavicle -3.18055e-015 3.02153e-014
rhumerus 57.9511 -48.2232 -15.2217
rradius 61.9342
rwrist -65.0033
rhand -16.3881 -11.1946
rfingers 7.12502
rthumb 9.82572 -40.9454
lclavicle -3.18055e-015 3.02153e-014
lhumerus 52.5436 -18.5236 -24.277
lradius 24.9061
lwrist 15.2186
lhand -0.412545 -2.06095
lfingers 7.12502
lthumb 25.1952 26.296
rfemur -12.6517 7.71391 16.1065
rtibia 30.3851
rfoot -15.8187 -24.5932
rtoes 53.5114
lfemur -7.7522 -10.7363 -15.8094
ltibia 36.9887
lfoot -29.2271 18.5056
ltoes 46.4849
352
root 12.7903 23.6223 10.2563 2.16347 -38.0369 -1.94931
lowerback -7.4368 -3.00252 4.7704
upperback -1.58928 -4.52113 3.99476
thorax 2.47517 -2.24679 1.03524
lowerneck -2.22113 -1.84753 -0.594889
upperneck 10.6705 -2.90415 3.64256
head 3.94548 -1.33927 1.193
rclavicle -7.15625e-014 3.33958e-014
rhumerus 46.9163 -49.6611 -5.29893
rradius 62.771
rwrist -63.2798
rhand -17.7787 -2.81846
rfingers 7.12502
rthumb 8.48388 -32.628
lclavicle -7.15625e-014 3.33958e-014
lhumerus 49.3623 -23.3593 -28.6635
lradius 24.5959
lwrist 15.4123
lhand -0.573382 -1.41444
lfingers 7.12502
lthumb 25.0411 26.9641
rfemur -12.8713 5.92294 16.2876
rtibia 31.1244
rfoot -12.5322 -27.0328
rtoes 51.8793
lfemur -7.6541 -5.68782 -15.6495
ltibia 37.1353
lfoot -20.454 21.4901
ltoes 43.6494
353
root 12.7926 24.0421 10.2856 2.17247 -40.8995 -1.49495
lowerback -7.61834 -2.97613 4.99572
upperback -1.49199 -4.55249 4.51366
thorax 2.70307 -2.2621 1.43012
lowerneck -1.68373 -2.00925 -0.659347
upperneck 10.3148 -3.14633 4.01418
head 3.73248 -1.4592 1.32079
rclavicle -4.23411e-014 3.65764e-014
rhumerus 35.7114 -50.0172 3.75566
rradius 63.8243
rwrist -60.8728
rhand -21.9489 4.34146
rfingers 7.12502
rthumb 4.45813 -25.5916
lclavicle -4.23411e-014 3.65764e-014
lhumerus 45.6264 -28.1654 -31.423
lradius 24.1811
lwrist 14.9674
lhand -0.920891 -1.12393
lfingers 7.12502
lthumb 24.708 27.3006
rfemur -13.3407 4.45938 16.0672
rtibia 32.5504
rfoot -6.42663 -29.169
rtoes 48.6758
lfemur -7.54773 0.306934 -15.8471
ltibia 37.5345
lfoot -7.74662 22.9137
ltoes 36.9454
354
root 12.8165 24.4358 10.2918 1.46794 -43.9303 -0.367067
lowerback -7.20449 -2.96322 4.87181
upperback -1.19695 -4.53271 4.87983
thorax 2.81945 -2.25473 1.89343
lowerneck -1.40957 -2.17203 -0.96457
upperneck 10.0963 -3.40023 4.56146
head 3.63296 -1.58397 1.54917
rclavicle 3.52843e-014 -1.74931e-014
rhumerus 24.9724 -49.3887 11.0859
rradius 65.2493
rwrist -58.1929
rhand -27.2885 7.50623
rfingers 7.12502
rthumb -0.698757 -22.4724
lclavicle 3.52843e-014 -1.74931e-014
lhumerus 41.2728 -33.1811 -32.9848
lradius 23.7684
lwrist 15.0228
lhand -1.39296 -1.02191
lfingers 7.12502
lthumb 24.2555 27.4638
rfemur -14.1951 3.35242 15.3231
rtibia 34.9727
rfoot 0.670463 -29.511
rtoes 44.7927
lfemur -7.40727 5.27913 -16.838
ltibia 38.3447
lfoot 4.37638 20.3804
ltoes 26.9393
